<svg id="Layer_1" data-name="Layer 1" xmlns="http://www.w3.org/2000/svg" viewBox="0 0 300 300"><rect x="177.82" y="240.25" width="12.31" height="12.03" transform="translate(367.95 492.54) rotate(-180)" fill="#231f20"/><rect x="84.31" y="169.23" width="81.54" height="12.01" transform="translate(250.15 350.47) rotate(-180)" fill="#231f20"/><rect x="165.92" y="228.35" width="12.27" height="11.99" transform="translate(344.12 468.69) rotate(-180)" fill="#231f20"/><rect x="178.19" y="192.92" width="11.17" height="35.33" transform="translate(367.56 421.17) rotate(-180)" fill="#231f20"/><rect x="165.73" y="181" width="12.59" height="12.3" transform="translate(344.06 374.3) rotate(-180)" fill="#231f20"/><rect x="72.02" y="181" width="12.59" height="12.3" transform="translate(156.63 374.3) rotate(-180)" fill="#231f20"/><rect x="155.07" y="204.51" width="11.17" height="10.92" transform="translate(321.31 419.94) rotate(-180)" fill="#231f20"/><rect x="83.96" y="204.51" width="11.17" height="10.92" transform="translate(179.09 419.94) rotate(-180)" fill="#231f20"/><rect x="142.53" y="122.87" width="23.48" height="10.92" transform="translate(308.53 256.67) rotate(-180)" fill="#231f20"/><rect x="83.45" y="122.52" width="23.73" height="11.71" transform="translate(190.63 256.76) rotate(-180)" fill="#231f20"/><rect x="107.1" y="144.84" width="36" height="12.94" transform="translate(250.2 302.62) rotate(-180)" fill="#231f20"/><rect x="48.5" y="144.84" width="23.89" height="12.94" transform="translate(120.88 302.62) rotate(-180)" fill="#231f20"/><rect x="165.66" y="133.65" width="12.43" height="12.14" transform="translate(343.74 279.44) rotate(-180)" fill="#231f20"/><rect x="72.16" y="134.1" width="11.44" height="11.14" transform="translate(155.77 279.33) rotate(-180)" fill="#231f20"/><rect x="142.53" y="131.76" width="11.86" height="13.44" transform="translate(296.91 276.97) rotate(-180)" fill="#231f20"/><rect x="96" y="132.14" width="11.17" height="13.44" transform="translate(203.18 277.73) rotate(-180)" fill="#231f20"/><rect x="177.7" y="145.46" width="23.7" height="10.92" transform="translate(379.1 301.84) rotate(-180)" fill="#231f20"/><rect x="165.46" y="168.26" width="58.73" height="13.13" transform="translate(369.65 -20) rotate(90)" fill="#231f20"/><rect x="31.01" y="174.07" width="47.81" height="12.94" transform="translate(235.46 125.62) rotate(90)" fill="#231f20"/><rect x="107.32" y="216.73" width="24.22" height="10.92" transform="translate(238.87 444.38) rotate(-180)" fill="#231f20"/><rect x="61.37" y="193.68" width="11.17" height="35.33" transform="translate(133.91 422.7) rotate(-180)" fill="#231f20"/><rect x="72.39" y="229.02" width="11.17" height="10.92" transform="translate(155.94 468.95) rotate(-180)" fill="#231f20"/><rect x="190.1" y="252.25" width="12.21" height="11.94" transform="translate(392.41 516.44) rotate(-180)" fill="#231f20"/><rect x="107.72" y="239.62" width="12.31" height="12.03" transform="translate(227.76 491.27) rotate(-180)" fill="#231f20"/><rect x="119.59" y="251.51" width="12.21" height="11.94" transform="translate(251.4 514.95) rotate(-180)" fill="#231f20"/><rect x="166.69" y="287.32" width="23.71" height="10.92" transform="translate(357.09 585.56) rotate(-180)" fill="#231f20"/><rect x="178.12" y="263.84" width="12.27" height="23.87" transform="translate(368.5 551.56) rotate(-180)" fill="#231f20"/><rect x="83.97" y="240.73" width="11.17" height="10.92" fill="#231f20"/><rect x="108.12" y="287.17" width="22.76" height="10.92" fill="#231f20"/><rect x="108.02" y="263.14" width="11.92" height="30.2" fill="#231f20"/><rect x="143.58" y="263.59" width="11.17" height="36" transform="translate(430.75 132.42) rotate(90)" fill="#231f20"/><rect x="178.19" y="192.92" width="11.17" height="35.33" transform="translate(367.56 421.17) rotate(-180)" fill="#231f20"/><rect x="61.37" y="193.05" width="11.17" height="35.97" transform="translate(133.91 422.06) rotate(-180)" fill="#231f20"/><rect x="95.46" y="251.2" width="12.62" height="12.33" fill="#231f20"/></svg>