<svg id="Layer_1" data-name="Layer 1" xmlns="http://www.w3.org/2000/svg" viewBox="0 0 300 300"><rect x="109.63" y="240.25" width="12.31" height="12.03" fill="#231f20"/><rect x="133.92" y="169.23" width="81.54" height="12.01" fill="#231f20"/><rect x="121.57" y="228.35" width="12.27" height="11.99" fill="#231f20"/><rect x="110.39" y="192.92" width="11.17" height="35.33" fill="#231f20"/><rect x="121.44" y="181" width="12.59" height="12.3" fill="#231f20"/><rect x="215.15" y="181" width="12.59" height="12.3" fill="#231f20"/><rect x="133.52" y="204.51" width="11.17" height="10.92" fill="#231f20"/><rect x="204.63" y="204.51" width="11.17" height="10.92" fill="#231f20"/><rect x="133.76" y="122.87" width="23.48" height="10.92" fill="#231f20"/><rect x="192.58" y="122.52" width="23.73" height="11.71" fill="#231f20"/><rect x="156.66" y="144.84" width="36" height="12.94" fill="#231f20"/><rect x="227.38" y="144.84" width="23.89" height="12.94" fill="#231f20"/><rect x="121.68" y="133.65" width="12.43" height="12.14" fill="#231f20"/><rect x="216.15" y="134.1" width="11.44" height="11.14" fill="#231f20"/><rect x="145.38" y="131.76" width="11.86" height="13.44" fill="#231f20"/><rect x="192.58" y="132.14" width="11.17" height="13.44" fill="#231f20"/><rect x="98.36" y="145.46" width="23.7" height="10.92" fill="#231f20"/><rect x="75.57" y="168.26" width="58.73" height="13.13" transform="translate(279.76 69.89) rotate(90)" fill="#231f20"/><rect x="220.94" y="174.07" width="47.81" height="12.94" transform="translate(425.38 -64.31) rotate(90)" fill="#231f20"/><rect x="168.22" y="216.73" width="24.22" height="10.92" fill="#231f20"/><rect x="227.22" y="193.68" width="11.17" height="35.33" fill="#231f20"/><rect x="216.2" y="229.02" width="11.17" height="10.92" fill="#231f20"/><rect x="97.45" y="252.25" width="12.21" height="11.94" fill="#231f20"/><rect x="179.73" y="239.62" width="12.31" height="12.03" fill="#231f20"/><rect x="167.96" y="251.51" width="12.21" height="11.94" fill="#231f20"/><rect x="109.36" y="287.32" width="23.71" height="10.92" fill="#231f20"/><rect x="109.38" y="263.84" width="12.27" height="23.87" fill="#231f20"/><rect x="204.61" y="240.73" width="11.17" height="10.92" transform="translate(420.4 492.38) rotate(-180)" fill="#231f20"/><rect x="168.88" y="287.17" width="22.76" height="10.92" transform="translate(360.53 585.27) rotate(-180)" fill="#231f20"/><rect x="179.82" y="263.14" width="11.92" height="30.2" transform="translate(371.56 556.48) rotate(-180)" fill="#231f20"/><rect x="145.01" y="263.59" width="11.17" height="36" transform="translate(432.19 130.99) rotate(90)" fill="#231f20"/><rect x="110.39" y="192.92" width="11.17" height="35.33" fill="#231f20"/><rect x="227.22" y="193.05" width="11.17" height="35.97" fill="#231f20"/><rect x="191.69" y="251.2" width="12.62" height="12.33" transform="translate(395.99 514.73) rotate(-180)" fill="#231f20"/></svg>