<svg id="Layer_1" data-name="Layer 1" xmlns="http://www.w3.org/2000/svg" viewBox="0 0 300 300"><rect x="108.73" y="251.43" width="11.74" height="44.16" fill="#231f20"/><rect x="180.04" y="216.62" width="81.54" height="12.01" fill="#231f20"/><rect x="167.69" y="275.74" width="12.27" height="11.99" fill="#231f20"/><rect x="214.83" y="275.36" width="24.31" height="11.99" fill="#231f20"/><rect x="156.52" y="240.31" width="11.17" height="35.33" fill="#231f20"/><rect x="167.56" y="228.39" width="12.59" height="12.3" fill="#231f20"/><rect x="261.28" y="228.39" width="12.59" height="12.3" fill="#231f20"/><rect x="179.64" y="251.9" width="23.63" height="10.92" fill="#231f20"/><rect x="238.83" y="251.9" width="23.1" height="10.92" fill="#231f20"/><rect x="179.88" y="170.26" width="23.48" height="10.92" fill="#231f20"/><rect x="238.71" y="169.91" width="23.73" height="11.71" fill="#231f20"/><rect x="202.79" y="192.23" width="36" height="12.94" fill="#231f20"/><rect x="273.5" y="192.23" width="23.89" height="12.94" fill="#231f20"/><rect x="167.8" y="181.04" width="12.43" height="12.14" fill="#231f20"/><rect x="262.28" y="181.48" width="11.44" height="11.14" fill="#231f20"/><rect x="191.5" y="179.15" width="11.86" height="13.44" fill="#231f20"/><rect x="238.71" y="179.53" width="11.17" height="13.44" fill="#231f20"/><rect x="144.48" y="192.85" width="23.7" height="10.92" fill="#231f20"/><rect x="121.69" y="215.65" width="58.73" height="13.13" transform="translate(373.27 71.15) rotate(90)" fill="#231f20"/><rect x="267.06" y="221.46" width="47.81" height="12.94" transform="translate(518.9 -63.04) rotate(90)" fill="#231f20"/><rect x="273.34" y="241.07" width="11.17" height="35.33" fill="#231f20"/><rect x="262.33" y="276.4" width="11.17" height="10.92" fill="#231f20"/><rect x="144.57" y="263.68" width="12.21" height="11.94" fill="#231f20"/><rect x="97.62" y="264.03" width="11.17" height="11.43" fill="#231f20"/><rect x="133.05" y="275.46" width="11.9" height="11.63" transform="translate(277.99 562.55) rotate(-180)" fill="#231f20"/><rect x="85.75" y="275.45" width="11.93" height="11.54" transform="translate(183.42 562.43) rotate(-180)" fill="#231f20"/><rect x="156.52" y="240.31" width="11.17" height="35.33" fill="#231f20"/><rect x="273.34" y="240.44" width="11.17" height="35.97" fill="#231f20"/><rect x="168.41" y="204.32" width="11.37" height="176.7" transform="translate(466.76 118.57) rotate(90)" fill="#231f20"/><rect x="127.09" y="233.32" width="11.49" height="24.72" transform="translate(378.52 112.85) rotate(90)" fill="#231f20"/><rect x="97.17" y="181.06" width="35.56" height="12.7" fill="#231f20"/><rect x="97.17" y="181.06" width="35.56" height="12.7" transform="translate(-72.46 302.37) rotate(-90)" fill="#231f20"/></svg>