<svg id="Layer_1" data-name="Layer 1" xmlns="http://www.w3.org/2000/svg" viewBox="0 0 300 300"><rect x="108.94" y="229.4" width="12.31" height="12.03" fill="#231f20"/><rect x="109.22" y="158.37" width="81.54" height="12.01" fill="#231f20"/><rect x="96.87" y="217.49" width="12.27" height="11.99" fill="#231f20"/><rect x="85.7" y="182.06" width="11.17" height="35.33" fill="#231f20"/><rect x="96.75" y="170.14" width="12.59" height="12.3" fill="#231f20"/><rect x="190.46" y="170.14" width="12.59" height="12.3" fill="#231f20"/><rect x="108.83" y="193.65" width="11.17" height="10.92" fill="#231f20"/><rect x="179.94" y="193.65" width="11.17" height="10.92" fill="#231f20"/><rect x="109.06" y="112.02" width="23.48" height="10.92" fill="#231f20"/><rect x="167.89" y="111.67" width="23.73" height="11.71" fill="#231f20"/><rect x="131.97" y="133.98" width="36" height="12.94" fill="#231f20"/><rect x="202.68" y="133.98" width="23.89" height="12.94" fill="#231f20"/><rect x="96.98" y="122.79" width="12.43" height="12.14" fill="#231f20"/><rect x="191.46" y="123.24" width="11.44" height="11.14" fill="#231f20"/><rect x="120.68" y="120.9" width="11.86" height="13.44" fill="#231f20"/><rect x="167.89" y="121.29" width="11.17" height="13.44" fill="#231f20"/><rect x="73.67" y="134.6" width="23.7" height="10.92" fill="#231f20"/><rect x="50.88" y="157.4" width="58.73" height="13.13" transform="translate(244.21 83.73) rotate(90)" fill="#231f20"/><rect x="196.25" y="163.21" width="47.81" height="12.94" transform="translate(389.83 -50.47) rotate(90)" fill="#231f20"/><rect x="142.86" y="205.87" width="24.89" height="10.92" fill="#231f20"/><rect x="202.52" y="182.83" width="11.17" height="35.33" fill="#231f20"/><rect x="191.51" y="218.16" width="11.17" height="10.92" fill="#231f20"/><rect x="96.75" y="241.4" width="12.21" height="11.94" fill="#231f20"/><rect x="120.57" y="276.46" width="11.81" height="10.92" fill="#231f20"/><rect x="108.68" y="252.98" width="12.27" height="23.87" fill="#231f20"/><rect x="179.92" y="229.3" width="11.17" height="10.92" transform="translate(371.02 469.52) rotate(-180)" fill="#231f20"/><rect x="190.95" y="240.08" width="12.62" height="12.33" transform="translate(394.52 492.49) rotate(-180)" fill="#231f20"/><rect x="179.13" y="252.29" width="11.92" height="24.33" transform="translate(370.17 528.9) rotate(-180)" fill="#231f20"/><rect x="143.1" y="253.97" width="11.17" height="33.52" transform="translate(419.41 122.05) rotate(90)" fill="#231f20"/><rect x="85.7" y="182.06" width="11.17" height="35.33" fill="#231f20"/><rect x="202.52" y="182.19" width="11.17" height="35.97" fill="#231f20"/><rect x="167.71" y="276.32" width="11.71" height="10.92" transform="translate(347.14 563.56) rotate(-180)" fill="#231f20"/><rect x="144.47" y="252.6" width="11.17" height="36.27" transform="translate(420.79 120.67) rotate(90)" fill="#231f20"/></svg>