<svg id="Layer_1" data-name="Layer 1" xmlns="http://www.w3.org/2000/svg" viewBox="0 0 300 300"><rect x="119.94" y="240.4" width="12.31" height="57.98" fill="#231f20"/><rect x="120.22" y="169.37" width="81.54" height="12.01" fill="#231f20"/><rect x="107.87" y="228.49" width="12.27" height="11.99" fill="#231f20"/><rect x="96.7" y="193.06" width="11.17" height="35.33" fill="#231f20"/><rect x="107.75" y="181.14" width="12.59" height="12.3" fill="#231f20"/><rect x="201.46" y="181.14" width="12.59" height="12.3" fill="#231f20"/><rect x="119.83" y="204.65" width="23.32" height="10.92" fill="#231f20"/><rect x="178.57" y="204.65" width="23.54" height="10.92" fill="#231f20"/><rect x="120.06" y="123.02" width="23.48" height="10.92" fill="#231f20"/><rect x="189.71" y="122.57" width="24.19" height="11.71" fill="#231f20"/><rect x="142.97" y="144.98" width="36" height="12.94" fill="#231f20"/><rect x="213.68" y="144.98" width="23.89" height="12.94" fill="#231f20"/><rect x="107.98" y="133.79" width="12.43" height="12.14" fill="#231f20"/><rect x="202.46" y="134.24" width="11.44" height="11.14" fill="#231f20"/><rect x="131.68" y="131.9" width="11.86" height="13.44" fill="#231f20"/><rect x="178.89" y="134.19" width="11.17" height="11.54" fill="#231f20"/><rect x="84.67" y="145.6" width="23.7" height="10.92" fill="#231f20"/><rect x="61.88" y="168.4" width="58.73" height="13.13" transform="translate(266.21 83.73) rotate(90)" fill="#231f20"/><rect x="207.25" y="174.21" width="47.81" height="12.94" transform="translate(411.83 -50.47) rotate(90)" fill="#231f20"/><rect x="143.52" y="228.3" width="36.17" height="10.92" fill="#231f20"/><rect x="213.52" y="193.83" width="11.17" height="35.33" fill="#231f20"/><rect x="202.51" y="229.16" width="11.17" height="10.92" fill="#231f20"/><rect x="131.89" y="252.22" width="12.21" height="11.94" fill="#231f20"/><rect x="123.02" y="287.46" width="20.37" height="10.92" fill="#231f20"/><rect x="190.44" y="240.3" width="11.65" height="48.05" transform="translate(392.54 528.65) rotate(-180)" fill="#231f20"/><rect x="177.95" y="251.27" width="12.62" height="12.33" transform="translate(368.52 514.87) rotate(-180)" fill="#231f20"/><rect x="176.19" y="287.32" width="11.17" height="10.92" transform="translate(363.56 585.56) rotate(-180)" fill="#231f20"/><rect x="154.1" y="264.97" width="11.17" height="33.52" transform="translate(441.41 122.05) rotate(90)" fill="#231f20"/><rect x="96.7" y="193.06" width="11.17" height="35.33" fill="#231f20"/><rect x="213.52" y="193.19" width="11.17" height="35.97" fill="#231f20"/><rect x="176.19" y="287.32" width="25.86" height="10.92" transform="translate(378.24 585.56) rotate(-180)" fill="#231f20"/><rect x="154.1" y="264.97" width="11.17" height="33.52" transform="translate(441.41 122.05) rotate(90)" fill="#231f20"/><rect x="37.02" y="251.45" width="12.62" height="12.33" transform="translate(86.67 515.24) rotate(-180)" fill="#231f20"/><rect x="25.09" y="263.52" width="12.62" height="12.33" transform="translate(62.79 539.37) rotate(-180)" fill="#231f20"/><rect x="12.77" y="275.58" width="12.62" height="12.33" transform="translate(38.16 563.49) rotate(-180)" fill="#231f20"/><rect x="12.77" y="287.52" width="60.85" height="12.33" transform="translate(86.39 587.37) rotate(-180)" fill="#231f20"/><rect x="48.71" y="263.77" width="12.62" height="12.33" transform="translate(110.03 539.87) rotate(-180)" fill="#231f20"/><rect x="60.77" y="275.45" width="12.62" height="12.33" transform="translate(134.16 563.24) rotate(-180)" fill="#231f20"/><rect x="72.56" y="229.4" width="11.17" height="10.92" fill="#231f20"/><rect x="61.81" y="218.85" width="11.17" height="10.92" fill="#231f20"/><rect x="61.75" y="240.26" width="11.17" height="10.92" fill="#231f20"/></svg>