<svg id="Layer_1" data-name="Layer 1" xmlns="http://www.w3.org/2000/svg" viewBox="0 0 300 300"><rect x="178.04" y="240.4" width="12.31" height="12.03" transform="translate(368.39 492.83) rotate(-180)" fill="#231f20"/><rect x="96.52" y="169.37" width="81.54" height="12.01" transform="translate(274.59 350.76) rotate(-180)" fill="#231f20"/><rect x="178.14" y="228.49" width="12.27" height="11.99" transform="translate(368.56 468.98) rotate(-180)" fill="#231f20"/><rect x="190.41" y="193.06" width="11.17" height="35.33" transform="translate(392 421.46) rotate(-180)" fill="#231f20"/><rect x="177.95" y="181.14" width="12.59" height="12.3" transform="translate(368.49 374.59) rotate(-180)" fill="#231f20"/><rect x="84.24" y="181.14" width="12.59" height="12.3" transform="translate(181.06 374.59) rotate(-180)" fill="#231f20"/><rect x="143.1" y="205.27" width="11.17" height="10.92" transform="translate(297.37 421.46) rotate(-180)" fill="#231f20"/><rect x="120.1" y="217.27" width="11.17" height="10.92" transform="translate(251.37 445.46) rotate(-180)" fill="#231f20"/><rect x="96.17" y="204.65" width="11.17" height="10.92" transform="translate(203.52 420.22) rotate(-180)" fill="#231f20"/><rect x="154.75" y="123.02" width="23.48" height="10.92" transform="translate(332.97 256.95) rotate(-180)" fill="#231f20"/><rect x="95.67" y="122.67" width="23.73" height="11.71" transform="translate(215.06 257.05) rotate(-180)" fill="#231f20"/><rect x="119.32" y="144.98" width="36" height="12.94" transform="translate(274.63 302.9) rotate(-180)" fill="#231f20"/><rect x="60.71" y="144.98" width="23.89" height="12.94" transform="translate(145.32 302.9) rotate(-180)" fill="#231f20"/><rect x="177.88" y="133.79" width="12.43" height="12.14" transform="translate(368.18 279.73) rotate(-180)" fill="#231f20"/><rect x="84.38" y="134.24" width="11.44" height="11.14" transform="translate(180.21 279.62) rotate(-180)" fill="#231f20"/><rect x="154.75" y="131.9" width="11.86" height="13.44" transform="translate(321.35 277.25) rotate(-180)" fill="#231f20"/><rect x="108.22" y="132.29" width="11.17" height="13.44" transform="translate(227.62 278.02) rotate(-180)" fill="#231f20"/><rect x="189.92" y="145.6" width="23.7" height="10.92" transform="translate(403.54 302.13) rotate(-180)" fill="#231f20"/><rect x="177.68" y="168.4" width="58.73" height="13.13" transform="translate(382.01 -32.08) rotate(90)" fill="#231f20"/><rect x="43.23" y="174.21" width="47.81" height="12.94" transform="translate(247.82 113.55) rotate(90)" fill="#231f20"/><rect x="73.59" y="193.83" width="11.17" height="35.33" transform="translate(158.35 422.98) rotate(-180)" fill="#231f20"/><rect x="84.6" y="229.16" width="22.97" height="10.92" transform="translate(192.17 469.24) rotate(-180)" fill="#231f20"/><rect x="166.32" y="252.4" width="12.21" height="11.94" transform="translate(344.85 516.73) rotate(-180)" fill="#231f20"/><rect x="189.94" y="252.4" width="12.21" height="11.94" transform="translate(392.09 516.73) rotate(-180)" fill="#231f20"/><rect x="96.03" y="252.02" width="12.21" height="11.94" transform="translate(204.28 515.97) rotate(-180)" fill="#231f20"/><rect x="166.9" y="287.46" width="23.71" height="10.92" transform="translate(357.52 585.84) rotate(-180)" fill="#231f20"/><rect x="178.33" y="263.98" width="12.27" height="23.87" transform="translate(368.94 551.84) rotate(-180)" fill="#231f20"/><rect x="108.19" y="240.3" width="12.08" height="57.7" fill="#231f20"/><rect x="122.92" y="287.32" width="11.17" height="10.92" fill="#231f20"/><rect x="108.24" y="263.29" width="11.92" height="30.2" fill="#231f20"/><rect x="145.02" y="264.97" width="11.17" height="33.52" transform="translate(432.33 131.13) rotate(90)" fill="#231f20"/><rect x="190.41" y="193.06" width="11.17" height="35.33" transform="translate(392 421.46) rotate(-180)" fill="#231f20"/><rect x="73.59" y="193.19" width="11.17" height="35.97" transform="translate(158.35 422.35) rotate(-180)" fill="#231f20"/><rect x="108.24" y="287.32" width="25.86" height="10.92" fill="#231f20"/><rect x="145.02" y="264.97" width="11.17" height="33.52" transform="translate(432.33 131.13) rotate(90)" fill="#231f20"/></svg>