<svg id="Layer_1" data-name="Layer 1" xmlns="http://www.w3.org/2000/svg" viewBox="0 0 300 300"><rect x="108.94" y="240.4" width="12.31" height="12.03" fill="#231f20"/><rect x="121.22" y="169.37" width="81.54" height="12.01" fill="#231f20"/><rect x="108.87" y="228.49" width="12.27" height="11.99" fill="#231f20"/><rect x="97.7" y="193.06" width="11.17" height="35.33" fill="#231f20"/><rect x="108.75" y="181.14" width="12.59" height="12.3" fill="#231f20"/><rect x="202.46" y="181.14" width="12.59" height="12.3" fill="#231f20"/><rect x="145.02" y="205.27" width="11.17" height="10.92" fill="#231f20"/><rect x="168.02" y="217.27" width="11.17" height="10.92" fill="#231f20"/><rect x="191.94" y="204.65" width="11.17" height="10.92" fill="#231f20"/><rect x="121.06" y="123.02" width="23.48" height="10.92" fill="#231f20"/><rect x="179.89" y="122.67" width="23.73" height="11.71" fill="#231f20"/><rect x="143.97" y="144.98" width="36" height="12.94" fill="#231f20"/><rect x="214.68" y="144.98" width="23.89" height="12.94" fill="#231f20"/><rect x="108.98" y="133.79" width="12.43" height="12.14" fill="#231f20"/><rect x="203.46" y="134.24" width="11.44" height="11.14" fill="#231f20"/><rect x="132.68" y="131.9" width="11.86" height="13.44" fill="#231f20"/><rect x="179.89" y="132.29" width="11.17" height="13.44" fill="#231f20"/><rect x="85.67" y="145.6" width="23.7" height="10.92" fill="#231f20"/><rect x="62.88" y="168.4" width="58.73" height="13.13" transform="translate(267.21 82.73) rotate(90)" fill="#231f20"/><rect x="208.25" y="174.21" width="47.81" height="12.94" transform="translate(412.83 -51.47) rotate(90)" fill="#231f20"/><rect x="214.52" y="193.83" width="11.17" height="35.33" fill="#231f20"/><rect x="191.71" y="229.16" width="22.97" height="10.92" fill="#231f20"/><rect x="120.75" y="252.4" width="12.21" height="11.94" fill="#231f20"/><rect x="97.14" y="252.4" width="12.21" height="11.94" fill="#231f20"/><rect x="191.04" y="252.02" width="12.21" height="11.94" fill="#231f20"/><rect x="108.67" y="287.46" width="23.71" height="10.92" fill="#231f20"/><rect x="108.68" y="263.98" width="12.27" height="23.87" fill="#231f20"/><rect x="179.02" y="240.3" width="12.08" height="57.7" transform="translate(370.11 538.3) rotate(-180)" fill="#231f20"/><rect x="165.19" y="287.32" width="11.17" height="10.92" transform="translate(341.56 585.56) rotate(-180)" fill="#231f20"/><rect x="179.13" y="263.29" width="11.92" height="30.2" transform="translate(370.17 556.77) rotate(-180)" fill="#231f20"/><rect x="143.1" y="264.97" width="11.17" height="33.52" transform="translate(430.41 133.05) rotate(90)" fill="#231f20"/><rect x="97.7" y="193.06" width="11.17" height="35.33" fill="#231f20"/><rect x="214.52" y="193.19" width="11.17" height="35.97" fill="#231f20"/><rect x="165.19" y="287.32" width="25.86" height="10.92" transform="translate(356.24 585.56) rotate(-180)" fill="#231f20"/><rect x="143.1" y="264.97" width="11.17" height="33.52" transform="translate(430.41 133.05) rotate(90)" fill="#231f20"/></svg>