<svg id="Layer_1" data-name="Layer 1" xmlns="http://www.w3.org/2000/svg" viewBox="0 0 300 299.43"><path d="M0,143.48C.66,100,14.94,62.18,47.2,32.24,68.4,12.57,93.31.76,122.78,0c4.87-.13,8.72,1.46,11.08,5.71s.9,7.82-1.46,11.59c-12.59,20.12-20,41.77-19.19,65.82,1,26.76,10.72,49.9,29.2,69.16,18.09,18.84,40.25,30.14,66.26,33.22,23.86,2.82,46.09-2.8,67-14.18,2.69-1.47,5.27-3.14,7.93-4.68,8.13-4.71,16.39-.1,16.39,9.29,0,19.88-5.8,38.21-16.2,54.94-22.15,35.67-54.67,56.54-95.4,65a162.4,162.4,0,0,1-83-4.06C66.5,279.56,37.18,255.48,18,219.45,5.4,195.77-.1,170.29,0,143.48Zm277.1,51c-51.42,21.21-99.54,16.83-141-20.3C89.57,132.43,82.39,80.61,104.91,22.59c-5.63,2.17-11,3.74-15.91,6.22C54.91,46,34,73.94,24.87,110.48c-8.26,33-4.92,65.26,10.12,95.91a124,124,0,0,0,53.92,55.83c28.05,15,57.92,19.4,89.22,14.42,29.91-4.75,55.37-18.05,75.78-40.51C264.71,224.25,272.75,210.67,277.1,194.46Z"/></svg>