<svg id="Layer_1" data-name="Layer 1" xmlns="http://www.w3.org/2000/svg" viewBox="0 0 300 300.06"><path d="M75,149.81A75,75,0,1,1,149.79,225,74.94,74.94,0,0,1,75,149.81Zm131.37.43a56.5,56.5,0,0,0-56-56.65c-30.8-.24-56.49,24.88-56.75,55.49a56.39,56.39,0,1,0,112.77,1.16Z"/><path d="M271.81,159.36c-6,0-12,0-18,0-5.75,0-9.94-3.92-10-9.23,0-5.46,4.12-9.4,10-9.42q18.18,0,36.36,0c4.91,0,8.74,3.06,9.59,7.52a9.19,9.19,0,0,1-5.47,10.29,13.14,13.14,0,0,1-4.58.8C283.79,159.41,277.8,159.35,271.81,159.36Z"/><path d="M28.07,159.35c-6.2,0-12.4.05-18.6,0A9.29,9.29,0,0,1,.2,152a9.16,9.16,0,0,1,5.53-10.43,11.49,11.49,0,0,1,4.15-.78q18.18-.09,36.35,0c5.72,0,9.85,4,9.87,9.31s-4.15,9.3-9.86,9.32c-6.05,0-12.11,0-18.17,0Z"/><path d="M223,86.3a9.18,9.18,0,0,1-8.5-5.42,9.3,9.3,0,0,1,2-10.46c4.8-4.87,9.66-9.69,14.5-14.53,4-4,8-8.09,12.11-12.07A9.29,9.29,0,0,1,258.64,49a8.58,8.58,0,0,1-2.38,7.88q-13.38,13.53-26.9,26.92A8.52,8.52,0,0,1,223,86.3Z"/><path d="M50.53,258.8c-4-.12-7-1.95-8.55-5.65-1.66-3.89-.76-7.41,2.17-10.39,4.06-4.11,8.16-8.18,12.24-12.26,4.53-4.53,9.06-9.08,13.61-13.6,4.13-4.11,9.78-4.24,13.71-.35,3.72,3.68,3.47,9.45-.62,13.55q-12.6,12.65-25.23,25.27C55.82,257.43,53.53,258.84,50.53,258.8Z"/><path d="M77.75,86.32a9.69,9.69,0,0,1-7.38-2.78Q57.29,70.47,44.22,57.38c-3.94-4-4-9.67-.31-13.4a9.24,9.24,0,0,1,13.25.09q13.4,13.2,26.59,26.61a9.28,9.28,0,0,1-6,15.64Z"/><path d="M222.27,213.76c3.28,0,5.43.88,7.17,2.6,8.84,8.8,17.69,17.59,26.45,26.45a9.28,9.28,0,1,1-13,13.21c-8.94-8.8-17.78-17.68-26.61-26.59a9.14,9.14,0,0,1-1.74-10.31A9,9,0,0,1,222.27,213.76Z"/><path d="M159.26,272c0,6.06,0,12.12,0,18.17,0,5.72-4,9.88-9.3,9.85s-9.2-4.11-9.22-9.71c0-12.47-.05-24.94,0-37.42,0-4.8,3.56-8.4,8.41-8.94a9.19,9.19,0,0,1,9.71,6.7,12.47,12.47,0,0,1,.34,3.17c0,6.06,0,12.12,0,18.18Z"/><path d="M159.26,28.17c0,6.06,0,12.11,0,18.17,0,5.77-4,9.85-9.34,9.77s-9.14-4.08-9.15-9.75q-.06-18.28,0-36.57c0-5.7,4-9.8,9.36-9.79s9.13,4.14,9.15,9.78C159.28,15.91,159.26,22,159.26,28.17Z"/></svg>