<svg id="Layer_1" data-name="Layer 1" xmlns="http://www.w3.org/2000/svg" viewBox="0 0 300 300"><rect x="108.94" y="240.4" width="12.31" height="25.48" fill="#231f20"/><rect x="109.22" y="169.37" width="81.54" height="12.01" fill="#231f20"/><rect x="96.87" y="228.49" width="12.27" height="11.99" fill="#231f20"/><rect x="85.7" y="193.06" width="11.17" height="35.33" fill="#231f20"/><rect x="96.75" y="181.14" width="12.59" height="12.3" fill="#231f20"/><rect x="190.46" y="181.14" width="12.59" height="12.3" fill="#231f20"/><rect x="108.83" y="204.65" width="11.17" height="10.92" fill="#231f20"/><rect x="120.51" y="251.13" width="11.17" height="10.92" fill="#231f20"/><rect x="169.52" y="251.13" width="11.17" height="10.92" fill="#231f20"/><rect x="179.94" y="204.65" width="11.17" height="10.92" fill="#231f20"/><rect x="121.14" y="228.52" width="11.17" height="10.92" fill="#231f20"/><rect x="109.06" y="123.02" width="23.48" height="10.92" fill="#231f20"/><rect x="167.89" y="122.67" width="23.73" height="11.71" fill="#231f20"/><rect x="131.97" y="144.98" width="36" height="12.94" fill="#231f20"/><rect x="202.68" y="144.98" width="23.89" height="12.94" fill="#231f20"/><rect x="96.98" y="133.79" width="12.43" height="12.14" fill="#231f20"/><rect x="191.46" y="134.24" width="11.44" height="11.14" fill="#231f20"/><rect x="120.68" y="131.9" width="11.86" height="13.44" fill="#231f20"/><rect x="167.89" y="132.29" width="11.17" height="13.44" fill="#231f20"/><rect x="73.67" y="145.6" width="23.7" height="10.92" fill="#231f20"/><rect x="50.88" y="168.4" width="58.73" height="13.13" transform="translate(255.21 94.73) rotate(90)" fill="#231f20"/><rect x="196.25" y="174.21" width="47.81" height="12.94" transform="translate(400.83 -39.47) rotate(90)" fill="#231f20"/><rect x="142.86" y="216.87" width="13.43" height="10.92" fill="#231f20"/><rect x="202.52" y="193.83" width="11.17" height="35.33" fill="#231f20"/><rect x="191.51" y="229.16" width="11.17" height="10.92" fill="#231f20"/><rect x="108.67" y="287.46" width="23.71" height="10.92" fill="#231f20"/><rect x="108.68" y="263.98" width="12.27" height="23.87" fill="#231f20"/><rect x="179.92" y="240.3" width="11.17" height="25.06" transform="translate(371.02 505.67) rotate(-180)" fill="#231f20"/><rect x="165.19" y="287.32" width="11.17" height="10.92" transform="translate(341.56 585.56) rotate(-180)" fill="#231f20"/><rect x="179.13" y="263.29" width="11.92" height="30.2" transform="translate(370.17 556.77) rotate(-180)" fill="#231f20"/><rect x="143.1" y="264.97" width="11.17" height="33.52" transform="translate(430.41 133.05) rotate(90)" fill="#231f20"/><rect x="85.7" y="193.06" width="11.17" height="35.33" fill="#231f20"/><rect x="202.52" y="193.19" width="11.17" height="35.97" fill="#231f20"/><rect x="165.19" y="287.32" width="25.86" height="10.92" transform="translate(356.24 585.56) rotate(-180)" fill="#231f20"/><rect x="143.1" y="264.97" width="11.17" height="33.52" transform="translate(430.41 133.05) rotate(90)" fill="#231f20"/></svg>